<?xml version="1.0" encoding="utf-8"?>
<!-- Generator: Adobe Illustrator 28.0.0, SVG Export Plug-In . SVG Version: 6.00 Build 0)  -->
<svg version="1.1" id="Layer_1" xmlns="http://www.w3.org/2000/svg" xmlns:xlink="http://www.w3.org/1999/xlink" x="0px" y="0px"
	 viewBox="0 0 132 132" style="enable-background:new 0 0 132 132;" xml:space="preserve">
<style type="text/css">
	.st0{fill:url(#SVGID_1_);}
	.st1{fill:#FFFFFF;}
</style>
<g>
	
		<radialGradient id="SVGID_1_" cx="-115.1834" cy="99.9737" r="238.2616" gradientTransform="matrix(1.0001 0 0 1 -7.748223e-03 0)" gradientUnits="userSpaceOnUse">
		<stop  offset="2.258983e-06" style="stop-color:#F96815"/>
		<stop  offset="1" style="stop-color:#F7931A"/>
	</radialGradient>
	<path class="st0" d="M130,82c-8.8,35.4-44.6,56.9-80,48.1C14.7,121.2-6.8,85.4,2,50C10.8,14.7,46.6-6.8,82,2
		C117.3,10.8,138.8,46.6,130,82z"/>
	<g>
		<path class="st1" d="M86.2,65.5c4.3-2.2,7-6.1,6.3-12.6c-0.9-8.8-8.5-11.8-18.2-12.6l-20.9,0.1c-1.6,0-3.2,0.1-4.7,0.1l0,0
			l-10.3,0l0,8c0,0,5.5-0.1,5.4,0c3,0,4,1.7,4.3,3.2l0.1,14c0.2,0,0.5,0,0.8,0c-0.2,0-0.5,0-0.8,0l0.1,19.6c-0.1,1-0.7,2.5-2.8,2.5
			c0.1,0.1-5.4,0-5.4,0l-1.4,8.9l9.7,0c1.8,0,3.6,0,5.3,0l0.1,12.4l7.5,0l-0.1-12.3c2,0,4,0,6,0l0.1,12.2l7.5,0l-0.1-12.4
			c12.5-0.8,21.3-4,22.3-15.8C97.8,71.4,93.4,67.2,86.2,65.5z M61.2,48.9c4.2,0,17.4-1.4,17.5,7.4c0,8.4-13.2,7.5-17.4,7.5
			L61.2,48.9z M61.4,87.8l-0.1-16.4c5.1,0,20.9-1.6,21,8.1C82.3,88.7,66.4,87.7,61.4,87.8z"/>
		<path class="st1" d="M63.6,22.4c-1.5,0-2.7-1.2-2.7-2.7c0-1.5,1.2-2.7,2.7-2.7c1.5,0,2.7,1.2,2.7,2.7
			C66.3,21.2,65.1,22.4,63.6,22.4z M52.9,21.3c1.2,0,2.1,1,2.1,2.1c0,1.2-0.9,2.1-2.1,2.1c-1.2,0-2.2-0.9-2.2-2.1
			C50.7,22.3,51.7,21.3,52.9,21.3z M74.4,21.3c1.2,0,2.1,1,2.1,2.1c0,1.2-0.9,2.1-2.1,2.1c-1.2,0-2.2-0.9-2.2-2.1
			C72.2,22.3,73.2,21.3,74.4,21.3z M55.2,36.2l-1.8-9.7c0.5-0.1,1-0.4,1.4-0.7c1.1,1,2.5,2,3.9,2c1.6,0,2.9-2.5,3.8-4.6
			c0.3,0.1,0.7,0.2,1,0.2c0.3,0,0.7-0.1,1-0.2c0.9,2.1,2.2,4.6,3.8,4.6c1.3,0,2.8-1,3.9-2c0.4,0.3,0.9,0.6,1.4,0.7L72,36.2H55.2
			L55.2,36.2z"/>
	</g>
</g>
</svg>
