<svg width="14" height="20" viewBox="0 0 14 20" fill="none" xmlns="http://www.w3.org/2000/svg">
<path d="M10.658 11.7842H7.75166H6.70999H5.67039V11.7822H2.76404C2.52064 11.7822 2.32262 11.9802 2.32262 12.2215V19.5606C2.32262 19.802 2.52064 20 2.76404 20H10.658C10.9014 20 11.0994 19.7999 11.0994 19.5586V12.2236C11.0994 11.9802 10.9014 11.7842 10.658 11.7842Z" fill="white"/>
<path d="M6.70998 0C3.00949 0 0 2.7269 0 6.08086C0 6.22319 0.0103135 6.36345 0.0247525 6.52847C0.0288779 6.57178 0.0391914 6.61304 0.0618812 6.65017L2.69802 11.3284H3.38284L0.643564 6.46865C0.812706 5.92409 1.30776 5.54868 1.88531 5.54868C2.60726 5.54868 3.19513 6.13655 3.19513 6.8585C3.19513 6.88119 3.20338 6.90182 3.20751 6.92451H3.20132L4.22649 11.3263H4.83705L3.79125 6.83375C3.80363 6.12211 4.38531 5.54662 5.09901 5.54662C5.81271 5.54662 6.40883 6.13449 6.40883 6.85644V11.3243H7.00495V6.85644C7.00495 6.13449 7.59282 5.54662 8.31477 5.54662C9.03672 5.54662 9.60809 6.12211 9.62253 6.83375L8.57673 11.3263H9.18729L10.2125 6.92451H10.2063C10.2125 6.89975 10.2186 6.87913 10.2186 6.85644C10.2186 6.13449 10.8045 5.54662 11.5285 5.54662C12.106 5.54662 12.6011 5.92203 12.7702 6.46659L10.0309 11.3263H10.7158L13.3519 6.6481C13.3725 6.61097 13.387 6.54291 13.3911 6.50165C13.4014 6.36139 13.4138 6.22319 13.4138 6.08086C13.4179 2.7269 10.4105 0 6.70998 0Z" fill="white"/>
</svg>
