<svg width="37" height="36" viewBox="0 0 37 36" fill="none" xmlns="http://www.w3.org/2000/svg">
<rect width="36.2791" height="35.2791" rx="10.5814" fill="#0040C2"/>
<path d="M8.58559 11.8166C8.92673 10.8004 9.33777 9.92744 9.3555 9.89141H9.35643C9.36948 9.86259 9.38812 9.83582 9.41142 9.81111C9.41422 9.80802 9.41701 9.80494 9.41888 9.80185C9.41981 9.80082 9.41981 9.80082 9.42074 9.79979C9.43845 9.78229 9.45709 9.76684 9.47853 9.75243C9.47853 9.75243 9.47946 9.75243 9.47946 9.7514C10.6129 8.98134 11.8404 8.44396 13.1286 8.15261C13.3038 8.11246 13.4912 8.16702 13.5955 8.28644C13.9115 8.6519 14.2135 9.03798 14.4931 9.4333C15.4159 10.7418 16.0339 12.0616 16.2268 13.0972C16.2305 13.0951 16.2343 13.0941 16.2389 13.092C16.238 13.1054 16.238 13.1188 16.2371 13.1322C16.8392 12.9273 17.4777 12.8171 18.1385 12.8171C18.7929 12.8171 19.4248 12.9263 20.0204 13.126C20.0204 13.1116 20.0213 13.0992 20.0204 13.0848C20.0297 13.0889 20.04 13.0931 20.0502 13.0972C20.2422 12.0605 20.8611 10.7407 21.7839 9.43436C22.0635 9.03801 22.3655 8.65194 22.6815 8.2875C22.7859 8.16705 22.9723 8.11352 23.1485 8.15367C24.4366 8.44502 25.6642 8.98343 26.7976 9.75246C26.8255 9.77202 26.8516 9.79467 26.8731 9.81938C26.8759 9.82247 26.8796 9.82556 26.8824 9.82968H26.8833C26.8982 9.84924 26.9113 9.86983 26.9216 9.89042C26.9216 9.89042 26.9225 9.89042 26.9225 9.89145C26.9402 9.92748 27.3503 10.8015 27.6924 11.8166C28.178 13.2599 28.2675 14.2091 27.9636 14.7199C27.8014 14.9916 27.5554 15.1059 27.3764 15.1543C27.231 15.1924 27.0754 15.2119 26.9113 15.2119C26.4359 15.2119 25.9009 15.0503 25.3827 14.7435C25.0639 14.5551 24.6697 14.2638 24.2754 13.8242C23.7553 14.3019 23.2221 14.6653 22.7048 14.8979C23.8895 16.1961 24.6249 17.9936 24.6249 19.9794C24.624 23.9274 21.715 27.1395 18.1404 27.1395C14.565 27.1395 11.6568 23.9274 11.6568 19.9784C11.6568 17.9935 12.3922 16.1951 13.5769 14.8958C13.0596 14.6632 12.5255 14.3008 12.0054 13.8231C11.6111 14.2637 11.2168 14.5561 10.8981 14.7425C10.3789 15.0492 9.84388 15.2109 9.36947 15.2109C9.20635 15.2109 9.04977 15.1923 8.90436 15.1532C8.7254 15.1058 8.47934 14.9916 8.31716 14.7188C8.01144 14.2092 8.09997 13.2589 8.58559 11.8166ZM17.1356 23.4198C17.5121 23.4198 17.844 23.2881 18.0658 23.078C18.2876 23.2881 18.6185 23.4198 18.996 23.4198C19.6792 23.4198 20.2133 22.9885 20.2152 22.4387C20.2152 22.2627 20.0866 22.1206 19.9272 22.1206C19.7678 22.1206 19.6392 22.2627 19.6392 22.4387C19.6392 22.5767 19.3829 22.7846 18.997 22.7846C18.6111 22.7846 18.3548 22.5756 18.3548 22.4387V21.3022C18.7276 21.2157 18.997 20.9666 18.997 20.6711C18.997 20.3046 18.5803 20.3252 18.0668 20.3252C17.5523 20.3252 17.1365 20.3046 17.1365 20.6711C17.1365 20.9655 17.4059 21.2157 17.7787 21.3022V22.4387C17.7787 22.5767 17.5224 22.7846 17.1365 22.7846C16.7507 22.7846 16.4943 22.5756 16.4943 22.4387C16.4943 22.2627 16.3657 22.1206 16.2063 22.1206C16.0469 22.1206 15.9183 22.2627 15.9183 22.4387C15.9174 22.9885 16.4524 23.4198 17.1356 23.4198Z" fill="white"/>
</svg>
