<svg width="20" height="20" viewBox="0 0 20 20" fill="none" xmlns="http://www.w3.org/2000/svg">
<path fill-rule="evenodd" clip-rule="evenodd" d="M14.9979 5.99952V5.0012C14.9979 2.23902 12.7589 0 9.99907 0C7.2393 0 5.00027 2.23902 5.00027 5.0012V5.99952H2.99883C2.50927 5.99952 2.09411 6.35229 2.01251 6.83465L0.0134727 18.8337C-0.0345235 19.1241 0.04707 19.4192 0.236655 19.6448C0.42624 19.8704 0.704618 20 0.999794 20H18.9984C19.2935 20 19.5719 19.8704 19.7615 19.6448C19.9511 19.4216 20.0327 19.1241 19.9847 18.8337L17.9856 6.83465C17.904 6.35229 17.4889 5.99952 16.9993 5.99952H14.9979ZM6.99932 5.99952H12.9988V5.0012C12.9988 3.34293 11.6549 2.00144 9.99907 2.00144C8.34321 2.00144 6.99932 3.34293 6.99932 5.0012V5.99952ZM6.99932 10C6.99932 9.44804 6.55055 8.99928 5.99859 8.99928C5.44664 8.99928 5.00027 9.44804 5.00027 10V11.0007C5.00027 11.5527 5.44664 11.999 5.99859 11.999C6.55055 11.999 6.99932 11.5527 6.99932 11.0007V10ZM13.9972 8.99928C14.5491 8.99928 14.9955 9.44804 14.9955 10V11.0007C14.9955 11.5527 14.5491 11.999 13.9972 11.999C13.4452 11.999 12.9964 11.5527 12.9964 11.0007V10C12.9964 9.44804 13.4452 8.99928 13.9972 8.99928Z" fill="white"/>
</svg>
