<svg width="26" height="19" viewBox="0 0 26 19" fill="none" xmlns="http://www.w3.org/2000/svg">
<path fill-rule="evenodd" clip-rule="evenodd" d="M8.80097 16.7678C8.18038 16.2903 7.81125 15.719 7.81125 15.0577V11.5433C7.81517 11.5159 7.82142 11.4888 7.82991 11.4625C7.82022 11.4174 7.81399 11.3716 7.81125 11.3256C7.81125 9.01797 12.1902 7.81128 16.5193 7.81128C20.8485 7.81128 25.2274 9.01797 25.2274 11.3256C25.2247 11.3716 25.2185 11.4174 25.2088 11.4625C25.2173 11.4888 25.2235 11.5159 25.2274 11.5433V15.0577C25.2247 15.2975 25.1739 15.5344 25.0782 15.7543C25.0811 15.7561 25.0841 15.758 25.087 15.7598C23.6614 17.7021 20.8471 19.0074 16.8304 19.0074C13.5565 19.0074 10.7124 18.1402 8.80097 16.7678ZM17.1414 14.8275C18.61 14.8011 20.0708 14.607 21.4954 14.2491V16.6873C20.0647 17.0845 18.5887 17.2956 17.104 17.3155C17.126 17.2599 17.1386 17.2011 17.1414 17.1414V14.8275ZM15.9347 17.3155C14.45 17.2956 12.974 17.0845 11.5433 16.6873V14.2491C12.9679 14.607 14.4287 14.8011 15.8973 14.8275V17.1414C15.9001 17.2011 15.9127 17.2599 15.9347 17.3155ZM22.7083 13.8634C23.1553 13.6966 23.5828 13.4818 23.9834 13.2227V15.0577C23.9834 15.4184 23.5418 15.8414 22.7394 16.2208V14.0314C22.7351 13.9744 22.7247 13.9181 22.7083 13.8634ZM10.2993 16.2208C9.49689 15.8414 9.05526 15.4184 9.05526 15.0577V13.2227C9.45587 13.4818 9.88341 13.6966 10.3304 13.8634C10.314 13.9181 10.3036 13.9744 10.2993 14.0314V16.2208Z" fill="white"/>
<path fill-rule="evenodd" clip-rule="evenodd" d="M1.35766 9.30446C1.35916 9.30056 1.36067 9.29667 1.3622 9.29279L1.39952 9.23681C0.534926 8.7081 0 8.04255 0 7.24638V3.73204C0.00392595 3.70461 0.0101688 3.67756 0.0186606 3.65118C0.00897609 3.60611 0.00273756 3.56036 0 3.51434C0 1.20669 4.37893 0 8.7081 0C13.0373 0 17.4162 1.20669 17.4162 3.51434C17.4135 3.56036 17.4072 3.60611 17.3975 3.65118C17.406 3.67756 17.4123 3.70461 17.4162 3.73204V7.24638C17.4135 7.48624 17.3627 7.72311 17.2669 7.94303C17.5268 8.10351 17.7407 8.2666 17.9159 8.42894C15.9451 10.103 12.6949 11.1962 9.0191 11.1962C6.03128 11.1962 3.32461 10.4739 1.35766 9.30446ZM9.33011 7.01624C10.7987 6.98982 12.2596 6.79574 13.6842 6.43777V8.87604C12.2534 9.27319 10.7775 9.48434 9.29279 9.50427C9.31471 9.44866 9.32732 9.38982 9.33011 9.33011V7.01624ZM8.12341 9.50427C6.63872 9.48434 5.16278 9.27319 3.73204 8.87604V6.43777C5.15663 6.79574 6.61745 6.98982 8.08609 7.01624V9.33011C8.08889 9.38982 8.10149 9.44866 8.12341 9.50427ZM14.8971 6.05213C15.344 5.88533 15.7716 5.67052 16.1722 5.41146V7.24638C16.1722 7.60715 15.7306 8.03011 14.9282 8.40954V6.22007C14.9238 6.16314 14.9134 6.10684 14.8971 6.05213ZM2.48803 8.40954C1.68564 8.03011 1.24401 7.60715 1.24401 7.24638V5.41146C1.64462 5.67052 2.07216 5.88533 2.51913 6.05213C2.50278 6.10684 2.49235 6.16314 2.48803 6.22007V8.40954Z" fill="white"/>
</svg>
