<svg width="22" height="28" viewBox="0 0 22 28" fill="none" xmlns="http://www.w3.org/2000/svg">
<path d="M20.5552 11.949L15.5425 10.5324C15.1333 10.4167 14.9012 9.98645 15.0309 9.58384L17.4212 2.16351C17.7807 1.69513 17.7693 1.02362 17.3612 0.56416C16.8973 0.0423184 16.097 -0.00809713 15.5734 0.45209L0.644561 13.5818C0.121163 14.0421 0.0729443 14.8387 0.536791 15.361C0.701321 15.5467 0.917176 15.6801 1.15726 15.7444C1.20098 15.7561 1.24534 15.7645 1.28988 15.7715C1.33218 15.7878 1.3755 15.8023 1.42031 15.8144L5.17444 16.8203C5.63033 16.9424 5.86244 17.4476 5.65654 17.8696L1.81958 25.734C1.39774 26.1756 1.3495 26.8694 1.73562 27.3689C1.90506 27.5888 2.14263 27.747 2.41135 27.8188C2.77918 27.9173 3.18701 27.8505 3.51177 27.602L20.9164 14.2894C21.0768 14.1667 21.2051 14.0073 21.2902 13.8246C21.3502 13.7275 21.3989 13.6213 21.4313 13.5061C21.6208 12.8364 21.2285 12.1393 20.5552 11.949Z" fill="url(#paint0_linear_1_236)"/>
<defs>
<linearGradient id="paint0_linear_1_236" x1="16" y1="1" x2="14.6589" y2="21.0731" gradientUnits="userSpaceOnUse">
<stop stop-color="#F7C243"/>
<stop offset="1" stop-color="#FF8812"/>
</linearGradient>
</defs>
</svg>
