<svg width="31" height="16" viewBox="0 0 31 16" fill="none" xmlns="http://www.w3.org/2000/svg">
<path d="M5.09901 7.01112C6.50706 7.01112 7.64851 5.86967 7.64851 4.46162C7.64851 3.05356 6.50706 1.91211 5.09901 1.91211C3.69095 1.91211 2.5495 3.05356 2.5495 4.46162C2.5495 5.86967 3.69095 7.01112 5.09901 7.01112Z" fill="white"/>
<path d="M8.5026 8.79579C7.841 9.29385 7.30426 9.93892 6.9348 10.6801C6.56534 11.4212 6.37327 12.2381 6.37376 13.0662V13.3849H0.956065C0.433416 13.3849 0 12.9515 0 12.4288V11.7915C0 9.85383 1.56795 8.28589 3.50557 8.28589H6.69245C7.35532 8.28589 7.97995 8.4771 8.5026 8.79579Z" fill="white"/>
<path d="M25.4951 7.01112C26.9031 7.01112 28.0446 5.86967 28.0446 4.46162C28.0446 3.05356 26.9031 1.91211 25.4951 1.91211C24.087 1.91211 22.9456 3.05356 22.9456 4.46162C22.9456 5.86967 24.087 7.01112 25.4951 7.01112Z" fill="white"/>
<path d="M30.5941 11.7915V12.4288C30.5941 12.9515 30.1607 13.3849 29.638 13.3849H24.2203V13.0662C24.2203 11.3198 23.379 9.7646 22.0915 8.79579C22.6141 8.4771 23.2388 8.28589 23.9016 8.28589H27.0885C29.0261 8.28589 30.5941 9.85383 30.5941 11.7915Z" fill="white"/>
<path d="M15.297 7.64852C17.4091 7.64852 19.1213 5.93634 19.1213 3.82426C19.1213 1.71218 17.4091 0 15.297 0C13.185 0 11.4728 1.71218 11.4728 3.82426C11.4728 5.93634 13.185 7.64852 15.297 7.64852Z" fill="white"/>
<path d="M18.8026 9.56067H11.7915C10.8619 9.56134 9.97067 9.9309 9.31339 10.5882C8.65612 11.2454 8.28656 12.1367 8.28589 13.0662V14.9784C8.28589 15.5061 8.71421 15.9344 9.24195 15.9344H21.3521C21.6057 15.9344 21.8489 15.8337 22.0281 15.6544C22.2074 15.4751 22.3082 15.2319 22.3082 14.9784V13.0662C22.3075 12.1367 21.9379 11.2454 21.2807 10.5882C20.6234 9.9309 19.7321 9.56134 18.8026 9.56067Z" fill="white"/>
</svg>
