<svg width="33" height="24" viewBox="0 0 33 24" fill="none" xmlns="http://www.w3.org/2000/svg">
<path d="M21.7356 3.55505L18.3561 4.12561L18.166 2.99911L15.913 3.37949L15.3424 0L13.0894 0.380375L13.66 3.75986L11.407 4.14024L11.5972 5.26673L8.21768 5.8373C3.25452 6.68217 -0.114001 11.4259 0.723556 16.3817C1.56111 21.3412 6.30483 24.7098 11.2643 23.8722L24.786 21.5826C29.7455 20.7451 33.114 16.0014 32.2764 11.0419C31.4389 6.08235 26.6951 2.71383 21.7356 3.55139V3.55505ZM13.0272 15.4601L10.7742 15.8404L11.1546 18.0934L8.90162 18.4738L8.52125 16.2208L6.26826 16.6012L5.88788 14.3482L8.14087 13.9678L7.7605 11.7148L10.0135 11.3345L10.3939 13.5874L12.6469 13.2071L13.0272 15.4601ZM24.1166 15.9026C22.2586 16.2172 20.4775 14.9517 20.1629 13.0937C19.8484 11.2357 21.1139 9.45452 22.9719 9.13998C24.8298 8.82544 26.611 10.0909 26.9256 11.9489C27.2401 13.8069 25.9746 15.5881 24.1166 15.9026Z" fill="white"/>
</svg>
