<?xml version="1.0" encoding="UTF-8"?>
<svg id="Layer_1" data-name="Layer 1" xmlns="http://www.w3.org/2000/svg" version="1.1" viewBox="0 0 30 30">
  <defs>
    <style>
      .cls-1 {
        fill: #ff8500;
      }

      .cls-1, .cls-2 {
        stroke-width: 0px;
      }

      .cls-2 {
        fill: #fff;
      }
    </style>
  </defs>
  <path class="cls-1" d="M29.6,18.6c-2,8-10.1,12.9-18.2,10.9C3.3,27.5-1.6,19.4.4,11.4,2.5,3.3,10.6-1.6,18.6.4c8,2,12.9,10.1,10.9,18.2Z"/>
  <g>
    <path class="cls-2" d="M19.6,14.9c1-.5,1.6-1.4,1.4-2.9-.2-2-1.9-2.7-4.1-2.9h-4.7c-.4,0-.7,0-1.1,0h0s-2.3,0-2.3,0v1.8s1.3,0,1.2,0c.7,0,.9.4,1,.7v3.2c0,0,.1,0,.2,0,0,0-.1,0-.2,0v4.4c0,.2-.1.6-.6.6,0,0-1.2,0-1.2,0l-.3,2h2.2c.4,0,.8,0,1.2,0v2.8s1.7,0,1.7,0v-2.8c.5,0,.9,0,1.3,0v2.8s1.7,0,1.7,0v-2.8c2.8-.2,4.8-.9,5.1-3.6.2-2.2-.8-3.1-2.4-3.5ZM13.9,11.1c1,0,4-.3,4,1.7,0,1.9-3,1.7-4,1.7v-3.4ZM13.9,19.9v-3.7c1.1,0,4.7-.4,4.7,1.8,0,2.1-3.6,1.9-4.7,1.9Z"/>
    <path class="cls-2" d="M14.5,5.1c-.3,0-.6-.3-.6-.6s.3-.6.6-.6.6.3.6.6-.3.6-.6.6ZM12,4.8c.3,0,.5.2.5.5s-.2.5-.5.5-.5-.2-.5-.5.2-.5.5-.5ZM16.9,4.8c.3,0,.5.2.5.5s-.2.5-.5.5-.5-.2-.5-.5.2-.5.5-.5ZM12.6,8.2l-.4-2.2c.1,0,.2,0,.3-.2.3.2.6.5.9.5s.7-.6.9-1c0,0,.2,0,.2,0s.2,0,.2,0c.2.5.5,1,.9,1s.6-.2.9-.5c0,0,.2.1.3.2l-.4,2.2h-3.8Z"/>
  </g>
</svg>